<svg width="17" height="17" viewBox="0 0 17 17" fill="none" xmlns="http://www.w3.org/2000/svg">
<g opacity="0.5">
<path d="M3.80347 3.6001C3.14043 3.6001 2.50454 3.86349 2.0357 4.33233C1.56686 4.80117 1.30347 5.43706 1.30347 6.1001V6.6001H15.3035V6.1001C15.3035 5.43706 15.0401 4.80117 14.5712 4.33233C14.1024 3.86349 13.4665 3.6001 12.8035 3.6001H3.80347ZM15.3035 7.6001H1.30347V11.1001C1.30347 11.7631 1.56686 12.399 2.0357 12.8679C2.50454 13.3367 3.14043 13.6001 3.80347 13.6001H12.8035C13.4665 13.6001 14.1024 13.3367 14.5712 12.8679C15.0401 12.399 15.3035 11.7631 15.3035 11.1001V7.6001ZM10.8035 10.6001H12.8035C12.9361 10.6001 13.0633 10.6528 13.157 10.7465C13.2508 10.8403 13.3035 10.9675 13.3035 11.1001C13.3035 11.2327 13.2508 11.3599 13.157 11.4537C13.0633 11.5474 12.9361 11.6001 12.8035 11.6001H10.8035C10.6709 11.6001 10.5437 11.5474 10.4499 11.4537C10.3561 11.3599 10.3035 11.2327 10.3035 11.1001C10.3035 10.9675 10.3561 10.8403 10.4499 10.7465C10.5437 10.6528 10.6709 10.6001 10.8035 10.6001Z" fill="#3D3D3D"/>
</g>
</svg>
