<svg width="17" height="17" viewBox="0 0 17 17" fill="none" xmlns="http://www.w3.org/2000/svg">
<g opacity="0.5" clip-path="url(#clip0_436_256)">
<path d="M15.5293 2.83343C15.4667 2.76025 15.389 2.7015 15.3015 2.66122C15.2141 2.62095 15.1189 2.60009 15.0226 2.6001H9.02261C8.92796 2.60022 8.83441 2.62049 8.7482 2.65958C8.66199 2.69866 8.58509 2.75565 8.52261 2.82676C8.45998 2.8981 8.41331 2.98199 8.38572 3.07281C8.35813 3.16364 8.35025 3.25931 8.36261 3.35343L9.02928 8.35343C9.04066 8.44098 9.06917 8.52543 9.11319 8.60196C9.15721 8.67848 9.21587 8.74559 9.28582 8.79945C9.35578 8.85331 9.43565 8.89286 9.52089 8.91585C9.60613 8.93884 9.69506 8.94481 9.78261 8.93343C9.87016 8.92205 9.95461 8.89354 10.0311 8.84952C10.1077 8.8055 10.1748 8.74684 10.2286 8.67689C10.2825 8.60693 10.322 8.52706 10.345 8.44182C10.368 8.35658 10.374 8.26765 10.3626 8.1801L9.82261 4.1201C9.81884 4.09733 9.8205 4.07399 9.82745 4.05198C9.8344 4.02997 9.84645 4.00991 9.86261 3.99343C9.87661 3.97644 9.89383 3.96239 9.91328 3.95209C9.93273 3.9418 9.95403 3.93545 9.97595 3.93343H14.0226C14.0471 3.93207 14.0715 3.93684 14.0936 3.94732C14.1157 3.9578 14.1349 3.97365 14.1493 3.99343C14.1656 4.01121 14.1776 4.03243 14.1845 4.05552C14.1915 4.07861 14.1931 4.10296 14.1893 4.12676L13.4626 8.50676C13.4334 8.68357 13.4757 8.86473 13.5801 9.01039C13.6845 9.15604 13.8425 9.25426 14.0193 9.28343C14.1068 9.29788 14.1964 9.29494 14.2828 9.27478C14.3692 9.25462 14.4508 9.21764 14.5229 9.16595C14.6686 9.06155 14.7668 8.90357 14.7959 8.72676L15.6893 3.39343C15.7067 3.29407 15.7014 3.19204 15.6737 3.09503C15.646 2.99803 15.5966 2.90858 15.5293 2.83343Z" fill="#3D3D3D"/>
<path d="M13.3559 9.93349H9.35588C9.32485 9.9346 9.29423 9.92628 9.26804 9.90961C9.24185 9.89295 9.22134 9.86873 9.20921 9.84015L8.56921 8.60015C8.54501 8.54972 8.50852 8.50619 8.46308 8.47357C8.41764 8.44095 8.36473 8.42029 8.30921 8.41349C8.25317 8.40703 8.19641 8.41462 8.14404 8.43557C8.09167 8.45652 8.04534 8.49017 8.00921 8.53349L6.75588 10.0735C6.65276 10.1828 6.5124 10.2494 6.36254 10.2602H5.69588C5.65098 10.2592 5.60636 10.2674 5.5647 10.2842C5.52304 10.301 5.48519 10.326 5.45344 10.3577C5.42168 10.3895 5.39667 10.4273 5.37991 10.469C5.36314 10.5106 5.35497 10.5553 5.35588 10.6002V14.6002C5.35479 14.6521 5.36636 14.7035 5.38959 14.75C5.41282 14.7964 5.44701 14.8365 5.48921 14.8668C7.02254 16.0202 8.20921 16.6002 9.02254 16.6002H12.7225C13.0128 16.6493 13.3108 16.5835 13.5535 16.4168C13.7961 16.25 13.9643 15.9954 14.0225 15.7068C14.3473 14.1317 14.57 12.5373 14.6892 10.9335C14.6892 10.4335 14.2292 9.93349 13.3559 9.93349ZM3.90921 9.60015H1.85588C1.81167 9.60015 1.76928 9.61771 1.73802 9.64897C1.70677 9.68022 1.68921 9.72262 1.68921 9.76682V15.7668C1.68921 15.811 1.70677 15.8534 1.73802 15.8847C1.76928 15.9159 1.81167 15.9335 1.85588 15.9335H3.90921C3.96496 15.94 4.02147 15.9348 4.07506 15.9181C4.12865 15.9013 4.17812 15.8735 4.22025 15.8364C4.26238 15.7993 4.29623 15.7538 4.31959 15.7027C4.34296 15.6517 4.35532 15.5963 4.35588 15.5402V9.99349C4.35532 9.93735 4.34296 9.88196 4.31959 9.83092C4.29623 9.77988 4.26238 9.73432 4.22025 9.69722C4.17812 9.66012 4.12865 9.63231 4.07506 9.61558C4.02147 9.59886 3.96496 9.5936 3.90921 9.60015ZM11.0225 6.60015C11.0225 6.86537 11.1279 7.11972 11.3154 7.30726C11.503 7.4948 11.7573 7.60015 12.0225 7.60015C12.2878 7.60015 12.5421 7.4948 12.7296 7.30726C12.9172 7.11972 13.0225 6.86537 13.0225 6.60015C13.0225 6.33494 12.9172 6.08058 12.7296 5.89305C12.5421 5.70551 12.2878 5.60015 12.0225 5.60015C11.7573 5.60015 11.503 5.70551 11.3154 5.89305C11.1279 6.08058 11.0225 6.33494 11.0225 6.60015ZM7.35588 7.93349C7.45317 7.93474 7.54956 7.91468 7.63827 7.87472C7.72699 7.83476 7.80588 7.77587 7.86941 7.70217C7.93295 7.62847 7.97957 7.54176 8.00603 7.44813C8.03248 7.35449 8.03812 7.2562 8.02254 7.16015L7.17588 2.12682C7.15946 2.08389 7.15946 2.03642 7.17588 1.99349C7.19622 1.96637 7.22434 1.94609 7.2565 1.93537C7.28867 1.92465 7.32333 1.92399 7.35588 1.93349H12.6892C12.866 1.93349 13.0356 1.86325 13.1606 1.73822C13.2856 1.6132 13.3559 1.44363 13.3559 1.26682C13.3559 1.09001 13.2856 0.92044 13.1606 0.795415C13.0356 0.670391 12.866 0.600153 12.6892 0.600153H6.35588C6.25858 0.598898 6.16219 0.618956 6.07348 0.658917C5.98476 0.698878 5.90587 0.757775 5.84234 0.831471C5.77881 0.905168 5.73218 0.991878 5.70572 1.08551C5.67927 1.17915 5.67363 1.27744 5.68921 1.37349L6.68921 7.37349C6.71477 7.53124 6.79614 7.67456 6.9185 7.77735C7.04087 7.88013 7.19608 7.93554 7.35588 7.93349Z" fill="#3D3D3D"/>
</g>
<defs>
<clipPath id="clip0_436_256">
<rect width="16" height="16" fill="white" transform="translate(0.689209 0.600098)"/>
</clipPath>
</defs>
</svg>
