<svg width="13" height="13" viewBox="0 0 13 13" fill="none" xmlns="http://www.w3.org/2000/svg">
<g opacity="0.2">
<path d="M4.18564 1.1001H8.38564C9.98565 1.1001 11.2856 2.4001 11.2856 4.0001V8.2001C11.2856 8.96923 10.9801 9.70685 10.4363 10.2507C9.8924 10.7946 9.15477 11.1001 8.38564 11.1001H4.18564C2.58564 11.1001 1.28564 9.8001 1.28564 8.2001V4.0001C1.28564 3.23097 1.59118 2.49334 2.13503 1.94949C2.67889 1.40563 3.41652 1.1001 4.18564 1.1001ZM4.08564 2.1001C3.60825 2.1001 3.15042 2.28974 2.81285 2.62731C2.47529 2.96487 2.28564 3.42271 2.28564 3.9001V8.3001C2.28564 9.2951 3.09064 10.1001 4.08564 10.1001H8.48564C8.96303 10.1001 9.42087 9.91046 9.75844 9.57289C10.096 9.23532 10.2856 8.77749 10.2856 8.3001V3.9001C10.2856 2.9051 9.48064 2.1001 8.48564 2.1001H4.08564ZM8.91064 2.8501C9.07641 2.8501 9.23538 2.91595 9.35259 3.03316C9.4698 3.15037 9.53564 3.30934 9.53564 3.4751C9.53564 3.64086 9.4698 3.79983 9.35259 3.91704C9.23538 4.03425 9.07641 4.1001 8.91064 4.1001C8.74488 4.1001 8.58591 4.03425 8.4687 3.91704C8.35149 3.79983 8.28564 3.64086 8.28564 3.4751C8.28564 3.30934 8.35149 3.15037 8.4687 3.03316C8.58591 2.91595 8.74488 2.8501 8.91064 2.8501ZM6.28564 3.6001C6.94869 3.6001 7.58457 3.86349 8.05341 4.33233C8.52225 4.80117 8.78564 5.43706 8.78564 6.1001C8.78564 6.76314 8.52225 7.39902 8.05341 7.86786C7.58457 8.33671 6.94869 8.6001 6.28564 8.6001C5.6226 8.6001 4.98672 8.33671 4.51788 7.86786C4.04904 7.39902 3.78564 6.76314 3.78564 6.1001C3.78564 5.43706 4.04904 4.80117 4.51788 4.33233C4.98672 3.86349 5.6226 3.6001 6.28564 3.6001ZM6.28564 4.6001C5.88782 4.6001 5.50629 4.75813 5.22498 5.03944C4.94368 5.32074 4.78564 5.70227 4.78564 6.1001C4.78564 6.49792 4.94368 6.87945 5.22498 7.16076C5.50629 7.44206 5.88782 7.6001 6.28564 7.6001C6.68347 7.6001 7.065 7.44206 7.3463 7.16076C7.62761 6.87945 7.78564 6.49792 7.78564 6.1001C7.78564 5.70227 7.62761 5.32074 7.3463 5.03944C7.065 4.75813 6.68347 4.6001 6.28564 4.6001Z" fill="#290D1B"/>
</g>
</svg>
