<svg width="17" height="17" viewBox="0 0 17 17" fill="none" xmlns="http://www.w3.org/2000/svg">
<g opacity="0.5">
<path d="M9.18172 1.93359C9.93172 1.93559 10.3124 1.93959 10.6411 1.94893L10.7704 1.95359C10.9197 1.95893 11.0671 1.96559 11.2451 1.97359C11.9544 2.00693 12.4384 2.11893 12.8631 2.28359C13.3031 2.45293 13.6737 2.68226 14.0444 3.05226C14.3835 3.38542 14.6458 3.78858 14.8131 4.23359C14.9777 4.65826 15.0897 5.14226 15.1231 5.85226C15.1311 6.02959 15.1377 6.17693 15.1431 6.32693L15.1471 6.45626C15.1571 6.78426 15.1611 7.16493 15.1624 7.91493L15.1631 8.41226V9.28559C15.1647 9.77186 15.1596 10.2581 15.1477 10.7443L15.1437 10.8736C15.1384 11.0236 15.1317 11.1709 15.1237 11.3483C15.0904 12.0583 14.9771 12.5416 14.8131 12.9669C14.6458 13.4119 14.3835 13.8151 14.0444 14.1483C13.7112 14.4874 13.3081 14.7497 12.8631 14.9169C12.4384 15.0816 11.9544 15.1936 11.2451 15.2269L10.7704 15.2469L10.6411 15.2509C10.3124 15.2603 9.93172 15.2649 9.18172 15.2663L8.68439 15.2669H7.81172C7.32523 15.2686 6.83874 15.2635 6.35239 15.2516L6.22306 15.2476C6.0648 15.2416 5.90657 15.2347 5.74839 15.2269C5.03906 15.1936 4.55506 15.0816 4.12972 14.9169C3.68494 14.7496 3.28202 14.4873 2.94906 14.1483C2.60969 13.8152 2.34713 13.412 2.17972 12.9669C2.01506 12.5423 1.90306 12.0583 1.86972 11.3483L1.84972 10.8736L1.84639 10.7443C1.8341 10.2581 1.82855 9.77187 1.82972 9.28559V7.91493C1.82788 7.42866 1.83277 6.94239 1.84439 6.45626L1.84906 6.32693C1.85439 6.17693 1.86106 6.02959 1.86906 5.85226C1.90239 5.14226 2.01439 4.65893 2.17906 4.23359C2.34685 3.78839 2.60987 3.38522 2.94972 3.05226C3.28249 2.71329 3.68518 2.45098 4.12972 2.28359C4.55506 2.11893 5.03839 2.00693 5.74839 1.97359C5.92572 1.96559 6.07373 1.95893 6.22306 1.95359L6.35239 1.94959C6.83852 1.93775 7.32479 1.93264 7.81106 1.93426L9.18172 1.93359ZM8.49639 5.26693C7.61234 5.26693 6.76449 5.61812 6.13937 6.24324C5.51425 6.86836 5.16306 7.71621 5.16306 8.60026C5.16306 9.48432 5.51425 10.3322 6.13937 10.9573C6.76449 11.5824 7.61234 11.9336 8.49639 11.9336C9.38045 11.9336 10.2283 11.5824 10.8534 10.9573C11.4785 10.3322 11.8297 9.48432 11.8297 8.60026C11.8297 7.71621 11.4785 6.86836 10.8534 6.24324C10.2283 5.61812 9.38045 5.26693 8.49639 5.26693ZM8.49639 6.60026C8.75904 6.60022 9.01912 6.65191 9.26178 6.75237C9.50445 6.85284 9.72495 7.00013 9.9107 7.18581C10.0965 7.3715 10.2438 7.59195 10.3444 7.83459C10.4449 8.07722 10.4967 8.33728 10.4967 8.59993C10.4968 8.86257 10.4451 9.12265 10.3446 9.36532C10.2441 9.60799 10.0969 9.82849 9.91117 10.0142C9.72549 10.2 9.50503 10.3473 9.2624 10.4479C9.01977 10.5484 8.7597 10.6002 8.49706 10.6003C7.96663 10.6003 7.45792 10.3895 7.08284 10.0145C6.70777 9.6394 6.49706 9.13069 6.49706 8.60026C6.49706 8.06983 6.70777 7.56112 7.08284 7.18605C7.45792 6.81097 7.96663 6.60026 8.49706 6.60026M11.9971 4.26693C11.776 4.26693 11.5641 4.35472 11.4078 4.511C11.2515 4.66729 11.1637 4.87925 11.1637 5.10026C11.1637 5.32127 11.2515 5.53324 11.4078 5.68952C11.5641 5.8458 11.776 5.93359 11.9971 5.93359C12.2181 5.93359 12.43 5.8458 12.5863 5.68952C12.7426 5.53324 12.8304 5.32127 12.8304 5.10026C12.8304 4.87925 12.7426 4.66729 12.5863 4.511C12.43 4.35472 12.2181 4.26693 11.9971 4.26693Z" fill="#3D3D3D"/>
</g>
</svg>
