<svg width="16" height="13" viewBox="0 0 16 13" fill="none" xmlns="http://www.w3.org/2000/svg">
<path d="M1.44385 1.6001H5.94851C6.21125 1.60007 6.47142 1.6518 6.71415 1.75235C6.95688 1.8529 7.17743 2.00029 7.36318 2.1861L9.44385 4.26676M3.44385 7.6001H1.44385M5.77718 3.6001L7.11051 4.93343C7.19806 5.02098 7.26751 5.12491 7.31489 5.2393C7.36227 5.35369 7.38666 5.47629 7.38666 5.6001C7.38666 5.72391 7.36227 5.84651 7.31489 5.9609C7.26751 6.07528 7.19806 6.17922 7.11051 6.26676C7.02297 6.35431 6.91903 6.42376 6.80465 6.47114C6.69026 6.51852 6.56766 6.54291 6.44385 6.54291C6.32004 6.54291 6.19744 6.51852 6.08305 6.47114C5.96866 6.42376 5.86473 6.35431 5.77718 6.26676L4.77718 5.26676C4.20385 5.8401 3.29518 5.90476 2.64585 5.4181L2.44385 5.26676" stroke="#3D3D3D" stroke-width="1.5" stroke-linecap="round" stroke-linejoin="round"/>
<path d="M3.44385 5.93327V8.93327C3.44385 10.1906 3.44385 10.8186 3.83451 11.2093C4.22518 11.5999 4.85318 11.5999 6.11051 11.5999H12.1105C13.3678 11.5999 13.9958 11.5999 14.3865 11.2093C14.7772 10.8186 14.7772 10.1906 14.7772 8.93327V6.93327C14.7772 5.67593 14.7772 5.04794 14.3865 4.65727C13.9958 4.2666 13.3678 4.2666 12.1105 4.2666H6.44385" stroke="#3D3D3D" stroke-width="1.5" stroke-linecap="round" stroke-linejoin="round"/>
<path d="M10.2772 7.93327C10.2772 8.24269 10.1543 8.53943 9.93547 8.75823C9.71668 8.97702 9.41993 9.09993 9.11051 9.09993C8.8011 9.09993 8.50435 8.97702 8.28556 8.75823C8.06676 8.53943 7.94385 8.24269 7.94385 7.93327C7.94385 7.62385 8.06676 7.3271 8.28556 7.10831C8.50435 6.88952 8.8011 6.7666 9.11051 6.7666C9.41993 6.7666 9.71668 6.88952 9.93547 7.10831C10.1543 7.3271 10.2772 7.62385 10.2772 7.93327Z" stroke="#3D3D3D" stroke-width="1.5" stroke-linecap="round" stroke-linejoin="round"/>
</svg>
