<svg width="13" height="13" viewBox="0 0 13 13" fill="none" xmlns="http://www.w3.org/2000/svg">
<g opacity="0.2">
<path d="M10.5149 7.72998L9.24492 7.58498C9.09559 7.56744 8.94423 7.58398 8.8022 7.63334C8.66018 7.6827 8.53119 7.76361 8.42492 7.86998L7.50492 8.78998C6.08562 8.06795 4.93195 6.91428 4.20992 5.49498L5.13492 4.56998C5.34992 4.35498 5.45492 4.05498 5.41992 3.74998L5.27492 2.48998C5.24668 2.24603 5.12966 2.02099 4.94615 1.85778C4.76265 1.69456 4.52551 1.60458 4.27992 1.60498H3.41492C2.84992 1.60498 2.37992 2.07498 2.41492 2.63998C2.67992 6.90998 6.09492 10.32 10.3599 10.585C10.9249 10.62 11.3949 10.15 11.3949 9.58498V8.71998C11.3999 8.21498 11.0199 7.78998 10.5149 7.72998Z" fill="#290D1B"/>
</g>
</svg>
