<svg width="17" height="17" viewBox="0 0 17 17" fill="none" xmlns="http://www.w3.org/2000/svg">
<g opacity="0.5">
<path d="M11.9504 9.71495C11.3799 9.71477 10.8321 9.93814 10.4244 10.3371L6.45035 8.10277C6.53199 7.76576 6.53199 7.41414 6.45035 7.07714L10.4232 4.84277C10.7943 5.20379 11.2818 5.42092 11.7985 5.45529C12.3151 5.48966 12.8271 5.33903 13.2428 5.03036C13.6585 4.72168 13.9508 4.27513 14.0673 3.77064C14.1838 3.26614 14.1169 2.73665 13.8787 2.27695C13.6404 1.81726 13.2463 1.45737 12.7669 1.26172C12.2875 1.06607 11.7542 1.04744 11.2623 1.20916C10.7704 1.37087 10.3522 1.70238 10.0824 2.14433C9.81267 2.58627 9.70902 3.10981 9.79004 3.6212L5.72348 5.9087C5.40406 5.64258 5.01542 5.47299 4.60308 5.4198C4.19075 5.36662 3.77179 5.43204 3.3953 5.6084C3.01881 5.78476 2.70037 6.06476 2.4773 6.4156C2.25422 6.76643 2.13574 7.17358 2.13574 7.58933C2.13574 8.00508 2.25422 8.41222 2.4773 8.76306C2.70037 9.1139 3.01881 9.3939 3.3953 9.57026C3.77179 9.74662 4.19075 9.81204 4.60308 9.75885C5.01542 9.70567 5.40406 9.53608 5.72348 9.26995L9.79004 11.5587C9.71974 12.0005 9.78658 12.4532 9.98156 12.8559C10.1765 13.2585 10.4903 13.5917 10.8805 13.8105C11.2707 14.0293 11.7186 14.1232 12.1638 14.0795C12.609 14.0359 13.0302 13.8568 13.3704 13.5663C13.7107 13.2759 13.9538 12.8882 14.0668 12.4553C14.1799 12.0225 14.1576 11.5654 14.0028 11.1457C13.848 10.7259 13.5683 10.3638 13.2013 10.1079C12.8343 9.85211 12.3977 9.71495 11.9504 9.71495Z" fill="#3D3D3D"/>
</g>
</svg>
