<svg width="17" height="17" viewBox="0 0 17 17" fill="none" xmlns="http://www.w3.org/2000/svg">
<g opacity="0.5" clip-path="url(#clip0_436_262)">
<path fill-rule="evenodd" clip-rule="evenodd" d="M2.78195 9.60024C2.66828 9.60024 2.55927 9.55508 2.4789 9.47471C2.39853 9.39434 2.35338 9.28533 2.35338 9.17167V2.88595C2.35338 2.64938 2.54538 2.45738 2.78195 2.45738H14.2105C14.4471 2.45738 14.6391 2.64938 14.6391 2.88595V9.17167C14.6391 9.28533 14.5939 9.39434 14.5136 9.47471C14.4332 9.55508 14.3242 9.60024 14.2105 9.60024H2.78195ZM0.924805 9.17167C0.924805 10.1968 1.7568 11.0288 2.78195 11.0288H14.2105C15.2368 11.0288 16.0677 10.1968 16.0677 9.17167V2.88595C16.0677 1.86081 15.2368 1.02881 14.2105 1.02881H2.78195C1.7568 1.02881 0.924805 1.86081 0.924805 2.88595V9.17167ZM8.49623 8.31452C7.89002 8.31452 7.30864 8.07371 6.87999 7.64505C6.45133 7.2164 6.21052 6.63502 6.21052 6.02881C6.21052 5.4226 6.45133 4.84122 6.87999 4.41256C7.30864 3.98391 7.89002 3.74309 8.49623 3.74309C9.10244 3.74309 9.68382 3.98391 10.1125 4.41256C10.5411 4.84122 10.7819 5.4226 10.7819 6.02881C10.7819 6.63502 10.5411 7.2164 10.1125 7.64505C9.68382 8.07371 9.10244 8.31452 8.49623 8.31452ZM3.21052 6.02881C3.21052 6.29403 3.31588 6.54838 3.50341 6.73592C3.69095 6.92345 3.9453 7.02881 4.21052 7.02881C4.47574 7.02881 4.73009 6.92345 4.91763 6.73592C5.10516 6.54838 5.21052 6.29403 5.21052 6.02881C5.21052 5.76359 5.10516 5.50924 4.91763 5.3217C4.73009 5.13417 4.47574 5.02881 4.21052 5.02881C3.9453 5.02881 3.69095 5.13417 3.50341 5.3217C3.31588 5.50924 3.21052 5.76359 3.21052 6.02881ZM11.7819 6.02881C11.7819 6.29403 11.8873 6.54838 12.0748 6.73592C12.2624 6.92345 12.5167 7.02881 12.7819 7.02881C13.0472 7.02881 13.3015 6.92345 13.4891 6.73592C13.6766 6.54838 13.7819 6.29403 13.7819 6.02881C13.7819 5.76359 13.6766 5.50924 13.4891 5.3217C13.3015 5.13417 13.0472 5.02881 12.7819 5.02881C12.5167 5.02881 12.2624 5.13417 12.0748 5.3217C11.8873 5.50924 11.7819 5.76359 11.7819 6.02881ZM9.21052 15.7431C9.21052 15.9325 9.13526 16.1142 9.00131 16.2482C8.86736 16.3821 8.68567 16.4574 8.49623 16.4574C8.30679 16.4574 8.12511 16.3821 7.99116 16.2482C7.8572 16.1142 7.78195 15.9325 7.78195 15.7431V13.4574C7.78195 13.2679 7.8572 13.0863 7.99116 12.9523C8.12511 12.8183 8.30679 12.7431 8.49623 12.7431C8.68567 12.7431 8.86736 12.8183 9.00131 12.9523C9.13526 13.0863 9.21052 13.2679 9.21052 13.4574V15.7431ZM11.3534 15.4574C11.7477 15.4574 12.0677 15.1374 12.0677 14.7431V12.4574C12.0677 12.3636 12.0492 12.2707 12.0133 12.184C11.9774 12.0974 11.9248 12.0186 11.8585 11.9523C11.7921 11.886 11.7134 11.8334 11.6267 11.7975C11.5401 11.7616 11.4472 11.7431 11.3534 11.7431C11.2596 11.7431 11.1667 11.7616 11.08 11.7975C10.9934 11.8334 10.9146 11.886 10.8483 11.9523C10.782 12.0186 10.7294 12.0974 10.6935 12.184C10.6576 12.2707 10.6391 12.3636 10.6391 12.4574V14.7431C10.6391 15.1374 10.9591 15.4574 11.3534 15.4574ZM6.35338 14.7431C6.35338 14.9325 6.27812 15.1142 6.14417 15.2482C6.01021 15.3821 5.82853 15.4574 5.63909 15.4574C5.44965 15.4574 5.26797 15.3821 5.13401 15.2482C5.00006 15.1142 4.9248 14.9325 4.9248 14.7431V12.4574C4.9248 12.2679 5.00006 12.0863 5.13401 11.9523C5.26797 11.8183 5.44965 11.7431 5.63909 11.7431C5.82853 11.7431 6.01021 11.8183 6.14417 11.9523C6.27812 12.0863 6.35338 12.2679 6.35338 12.4574V14.7431Z" fill="#3D3D3D"/>
</g>
<defs>
<clipPath id="clip0_436_262">
<rect width="16" height="16" fill="white" transform="translate(0.496338 0.600098)"/>
</clipPath>
</defs>
</svg>
