<svg width="17" height="17" viewBox="0 0 17 17" fill="none" xmlns="http://www.w3.org/2000/svg">
<g opacity="0.5">
<path d="M8.68987 1.93359C12.3719 1.93359 15.3565 4.91826 15.3565 8.60026C15.3565 12.2823 12.3719 15.2669 8.68987 15.2669C7.51171 15.269 6.35426 14.9572 5.33654 14.3636L2.02587 15.2669L2.9272 11.9549C2.33318 10.9369 2.02114 9.77894 2.0232 8.60026C2.0232 4.91826 5.00787 1.93359 8.68987 1.93359ZM6.41787 5.46693L6.28454 5.47226C6.19833 5.4782 6.1141 5.50084 6.03654 5.53893C5.96425 5.57993 5.89824 5.63113 5.84054 5.69093C5.76054 5.76626 5.7152 5.83159 5.66654 5.89493C5.41995 6.21553 5.28719 6.60914 5.2892 7.01359C5.29054 7.34026 5.37587 7.65826 5.5092 7.95559C5.78187 8.55693 6.23054 9.19359 6.82254 9.78359C6.9652 9.92559 7.1052 10.0683 7.25587 10.2009C7.99149 10.8485 8.86806 11.3156 9.81587 11.5649L10.1945 11.6229C10.3179 11.6296 10.4412 11.6203 10.5652 11.6143C10.7593 11.604 10.9489 11.5515 11.1205 11.4603C11.2078 11.4152 11.293 11.3662 11.3759 11.3136C11.3759 11.3136 11.4041 11.2945 11.4592 11.2536C11.5492 11.1869 11.6045 11.1396 11.6792 11.0616C11.7352 11.0038 11.7819 10.9367 11.8192 10.8603C11.8712 10.7516 11.9232 10.5443 11.9445 10.3716C11.9605 10.2396 11.9559 10.1676 11.9539 10.1229C11.9512 10.0516 11.8919 9.97759 11.8272 9.94626L11.4392 9.77226C11.4392 9.77226 10.8592 9.51959 10.5045 9.35826C10.4674 9.3421 10.4277 9.33284 10.3872 9.33093C10.3416 9.32616 10.2955 9.33125 10.252 9.34585C10.2085 9.36046 10.1687 9.38425 10.1352 9.41559C10.1319 9.41426 10.0872 9.45226 9.6052 10.0363C9.57754 10.0734 9.53943 10.1015 9.49574 10.117C9.45205 10.1324 9.40475 10.1345 9.35987 10.1229C9.31642 10.1113 9.27387 10.0966 9.23254 10.0789C9.14987 10.0443 9.1212 10.0309 9.06454 10.0069C8.68179 9.8402 8.3275 9.61458 8.01454 9.33826C7.93054 9.26493 7.85254 9.18493 7.77254 9.10759C7.51028 8.8564 7.2817 8.57225 7.09254 8.26226L7.0532 8.19893C7.02538 8.15613 7.00256 8.11027 6.9852 8.06226C6.95987 7.96426 7.02587 7.88559 7.02587 7.88559C7.02587 7.88559 7.18787 7.70826 7.2632 7.61226C7.33654 7.51893 7.39854 7.42826 7.43854 7.36359C7.5172 7.23693 7.54187 7.10693 7.50054 7.00626C7.31387 6.55026 7.12098 6.0967 6.92187 5.64559C6.88254 5.55626 6.76587 5.49226 6.65987 5.47959C6.62387 5.47515 6.58787 5.47159 6.55187 5.46893C6.46236 5.46379 6.3726 5.46468 6.2832 5.47159L6.41787 5.46693Z" fill="#3D3D3D"/>
</g>
</svg>
