<svg width="13" height="13" viewBox="0 0 13 13" fill="none" xmlns="http://www.w3.org/2000/svg">
<g opacity="0.2" clip-path="url(#clip0_436_8896)">
<path fill-rule="evenodd" clip-rule="evenodd" d="M4.38364 1.6781C3.45034 2.08111 2.66789 2.7682 2.14764 3.6416H3.64539C3.76289 3.1211 3.91789 2.6426 4.10439 2.22235C4.18682 2.03566 4.28006 1.85393 4.38364 1.6781ZM1.47314 6.1001C1.47314 5.7276 1.51564 5.36485 1.59564 5.0166H3.43214C3.39974 5.37685 3.38364 5.73839 3.38389 6.1001C3.38389 6.4691 3.40014 6.83135 3.43214 7.1831H1.59539C1.51387 6.82787 1.47286 6.46456 1.47314 6.1001ZM2.14739 8.5581C2.66763 9.43172 3.45017 10.119 4.38364 10.5221C4.28006 10.3463 4.18682 10.1645 4.10439 9.97785C3.91764 9.5576 3.76289 9.07885 3.64539 8.5581H2.14739ZM4.93214 8.5581C5.01281 8.87002 5.11805 9.17505 5.24689 9.47035C5.43164 9.88635 5.63539 10.1841 5.83039 10.3696C6.02189 10.5521 6.17464 10.6001 6.28539 10.6001C6.39614 10.6001 6.54914 10.5521 6.74089 10.3696C6.93564 10.1841 7.13964 9.88635 7.32439 9.47035C7.44364 9.2016 7.54989 8.89535 7.63914 8.5581H4.93214ZM8.92589 8.5581C8.80839 9.07885 8.65339 9.5576 8.46664 9.97785C8.38422 10.1645 8.29098 10.3463 8.18739 10.5221C9.12096 10.119 9.90359 9.43176 10.4239 8.5581H8.92589ZM10.9759 7.1831H9.13914C9.17153 6.82301 9.18763 6.46164 9.18739 6.1001C9.18739 5.73085 9.17089 5.3686 9.13914 5.0166H10.9756C11.0556 5.36485 11.0981 5.7276 11.0981 6.1001C11.0981 6.4726 11.0556 6.8351 10.9756 7.1831M7.88314 7.1831H4.68764C4.65152 6.82323 4.63358 6.46177 4.63389 6.1001C4.63389 5.7251 4.65264 5.3626 4.68789 5.0166H7.88314C7.91814 5.3626 7.93714 5.72535 7.93714 6.1001C7.93714 6.47485 7.91839 6.8371 7.88314 7.1831ZM8.92564 3.6416H10.4234C9.90308 2.76816 9.12055 2.08107 8.18714 1.6781C8.28864 1.8491 8.38164 2.03185 8.46639 2.22235C8.65314 2.64235 8.80789 3.1211 8.92539 3.6416M5.24639 2.72985C5.11758 3.02498 5.01233 3.32985 4.93164 3.6416H7.63839C7.55779 3.32986 7.45263 3.02499 7.32389 2.72985C7.13889 2.31385 6.93514 2.0161 6.74039 1.8306C6.54914 1.6481 6.39639 1.6001 6.28564 1.6001C6.17489 1.6001 6.02189 1.6481 5.83039 1.8306C5.63539 2.0161 5.43164 2.31385 5.24689 2.72985M6.28564 0.287598C3.07564 0.287598 0.473145 2.8901 0.473145 6.1001C0.473145 9.3101 3.07564 11.9126 6.28564 11.9126C9.49564 11.9126 12.0981 9.3101 12.0981 6.1001C12.0981 2.8901 9.49564 0.287598 6.28564 0.287598Z" fill="#290D1B"/>
</g>
<defs>
<clipPath id="clip0_436_8896">
<rect width="12" height="12" fill="white" transform="translate(0.285645 0.100098)"/>
</clipPath>
</defs>
</svg>
